<?xml version="1.0" encoding="UTF-8"?>
<svg id="Color_Fill_1_Image" data-name="Color Fill 1 Image" xmlns="http://www.w3.org/2000/svg" viewBox="0 0 720 519.6">
  <g>
    <path d="M536.21,340.83c2.28,0,5.83.44,6.3-1.79.28-1.33.79-3.24,1.35-5.36.45-1.7,3.27-11,3.5-19.41.17-6.51-.6-8.91-.44-17.37.02-.88.73-1.59,1.61-1.61,15.6-.33,11.61,44.12,33.28,50.89,1.17.36,8.94,1.76,9.49.05.47-1.47.2-9.77.1-11.92-2.09-45.12-33.99-89.77-28.52-134.79.65-5.33,4.46-12.68,7.06-17.43,1.9-3.48,15.01-24.28,18.06-24.13.83.47.61,1.13.78,1.8,1.13,4.44,1.34,9.96,2.43,14.76,2.82,12.4,8.59,26.29,14.66,37.44,3.06,5.63,11.75,14.36,3.91,19.86-2.88.25-6.39-5.62-8.33-7.1-.4-.3-1.44-1.06-1.75-.34,3.53,17.05,8.84,33.71,12.26,50.79,4.35,21.75,5.67,41.26,1.13,63.16-2.87,13.89-11.8,46.48-25.89,52.27-12.41,5.1-20-10.57-26.3-18.49-6.05,5.08-7.08,18.45-14.57,20.47-9.98,2.7-21.98,1.02-27.27-7.81-1.52-2.54-3.49-11.57-6.07-11.62-3.96-.08-17.21,14.22-21.46,17.1-7.41,5.01-17.02,5.05-24.51.21-4.84-3.13-6.32-6.82-8.21-12.09-6.02,3.65-10.88,8.47-17.46,11.18-18.14,7.47-35.58,1.91-38.02-19.01-1.2-.3-.86.24-1.19.66-4.39,5.59-7.61,13.53-13.12,18.11-14.5,12.08-34.65,2.5-44.46-10.78-23.07-31.25-19.52-98.82-21.97-136.95-1.53-23.84-5.03-35.35-6.86-59.15-.09-1.12-1.17-9.26-1.18-10.38l27.38-3.16c1.13,14.14,6.76,37.6,7.94,54.23,1.97,27.87,3.06,44.23,5.55,72.13,1.26,14.11,5.51,50.15,25.17,50.09,17.51-.05,21.24-21.36,23.83-33.77,1.06-5.05,1.47-13.54,2.82-15.68,4.75-7.52,9.77,20.41,11.97,30.39,6.73,30.54,35.46,23.23,46.19-.18,2.65-5.78,1.96-15.95,8.32-17.1.55-.1,1.1.24,1.16.8.42,3.99-.11,16.68.4,23.96,1.2,17.3,19.73,10.88,27.23,1.32,6.98-8.89,5.39-21.7,6.11-29.77.39-4.36,3.4-6.73,5.87-2.82,4.98,7.88,1.31,24.13,7.16,33.33,1.56,2.45,6.21,5.03,9.03,5.03h5.52Z" style="fill: #ffe8bf;"/>
    <path d="M167.52,441.16c5.14-.99,10.48-.56,15.71-1.22,32.97-4.1,90.76-34.47,109.91-62,3.74-5.37,6.72-10.87,5-17.66-.86-.9-5.77,5.58-6.49,6.27-9.88,9.35-30.15,8.8-40.39.25-20.19-16.84-8.55-58.43,2-78.26,21.04-39.56,48.16-25.43,59.61,10.89,20.82,66.04-15.45,142.08-77.48,170.58-2.2.09-13.35-7.97-16.25-9.58-8.16-4.55-23.94-8.98-33.21-9.54-3.83-.23-17.86-3.9-19.11-5.87-.86-1.36-.38-2.1.7-3.86ZM261.35,307.32c-4.52,4.8-2,13.2,2.97,16.72,4.04,2.86,14.62,4.21,18.91,1.79,7.57-4.27-2.64-19.99-7.7-22.12-3.74-1.58-11.31.56-14.18,3.61Z" style="fill: #ffe8bf;"/>
    <path d="M670.42,232.99c-3.81,4.52-10.83-2.55-12.61-6.1-.81,3.28.31,6.71,1.04,9.9,2.15,9.38,6.09,18.66,8.34,28.13,7.5,31.54,7.4,68.31-2.34,99.28-2.45,7.78-10.76,30.86-19.24,32.85-2,.47-6.3.6-6.32-2.09,4.22-39.31,1.96-79.07-6.38-117.63s-26.26-71.36,1.74-106.97c.91-1.16,13.07-15.22,14.04-13.82,1.36,16.52,4.89,34.27,11.89,49.34,2.54,5.46,11.08,18.07,11.04,23.36,0,.86-.67,3.12-1.2,3.75Z" style="fill: #ffe8bf;"/>
    <path d="M515.73,220.23c1.38-.28,2.33-.21,3.64.29,2.83,1.09,9.44,6.03,12.29,8.03,3.55,2.49,14.48,10.16,16.51,13.19,4.66,6.95-.99,15.2-4.42,21.64-1.82,3.42-9.98,17.8-12.78,19-5.41,2.31-9.75-5.83-12.99-8.87-2.18-2.05-5.65-4.6-8.12-6.47-3.87-2.94-7.82-6.06-12.41-7.77-1.24.24-8.51,14.28-10.01,16.56-2.89,4.39-5.12,8.8-11.29,7.21-8.53-6.54-17.29-12.91-25.63-19.7-8.76-7.12-10.42-7.09-4.14-17.65,3.31-5.57,8.09-12.5,12.22-17.48,2.79-3.36,5.45-7.47,10.54-6.42,5.05,1.05,17.19,14.43,21.73,18.39,3.74,3.26,6.54,6.67,10.64,1.77,4.11-4.92,7.57-20.35,14.23-21.72Z" style="fill: #ffe8bf;"/>
    <path d="M173,517.52c-2.01,1.96-5.52-1.34-7.17-2.72-4.86-4.07-21.4-21.25-26.85-21.1-.7-.06-.86.38-1.2.84-4.47,5.97-6.83,14.67-12.3,20.52-5.67,6.07-9.09,2.64-14.58-1.58-8.6-6.62-15.67-14.74-24.79-21.06-1.6-1.11-2.58-.21-1.93-3.02,1.23-5.32,14.98-24.17,19.17-28.77,4.77-5.25,5.27-5.07,11.09-1.22,8.11,5.37,14.27,14.46,21.45,19.19,4.89,3.22,6.88-.46,9.21-4.35,2.77-4.62,7.2-17.3,12.39-18.87.99-.3,1.74-.39,2.76-.12,1.23.33,7.76,5.1,9.41,6.23,4.38,3,17.14,11.61,19.21,15.69,5.54,10.91-7.04,25.88-12.82,34.8-.73,1.12-2.57,5.09-3.04,5.55Z" style="fill: #d5a866;"/>
    <path d="M667.01,465.43c1.12-.21,2.2.54,2.45,1.65.56,2.48,1.27,4.95,1.77,7.42.31,1.51.64,2.84.93,4.55,1.29,7.65-2.78,18.81-7.38,24.93-3.44,4.58-4.97,4.57-10.51,4.17-8.72-.63-31.88-8.02-35.7-16.37-2.55-5.57-2.21-21.2-2-27.83.51-16.58,3.83-33.01,9.39-48.59l3.36-9.43c.3-.84,1.55-.62,1.54.28l-.59,31.76s0,.09,0,.13c1.38,9.78,4.52,20.92,13.49,26.26.77.46,3.01,1.86,5.72,2.88,1.64.62,3.42.76,5.13.45l12.38-2.26Z" style="fill: #d5a866;"/>
    <path d="M335.83,473.18c1.84,1.93,5.07,3,7.63,3.57,3,.67,7.66,1.28,10.69,1.34,5.88.13,6.51-3.17,7.05,5.4.61,9.58-2.52,20.52-8.45,28.07-5.81,7.4-8.84,7.9-17.76,4.91-8.12-2.72-28.66-14.88-29.58-24.08-.61-6.12,1.94-17.55,3.31-23.83,4.66-21.34,13.75-41.61,25.62-59.82-.33,8.74-4.25,16.88-5.83,25.44-1.43,7.73-2.68,19.37-.05,26.82.77,2.18,5.81,10.56,7.36,12.18Z" style="fill: #d5a866;"/>
    <path d="M487.07,169.11c.92-.24,8.74,5.26,10.21,6.29,5.74,4.03,16.68,12.02,20.38,17.66,3.21,4.89-.02,9.21-2.61,13.47-5.24,8.59-12.59,16.13-18.18,24.51l-34.45-26.01c.27-6.16,3.57-14.47,6.89-19.24,4.77-6.86,10.82-12.11,17.76-16.67Z" style="fill: #ffe8bf;"/>
    <path d="M394.38,220.71c.42-.06.78-.1,1.14.18,2.46,1.31,21.12,13.24,28.14,22.43,4.38,5.73.81,9.15-2.17,14.47-1.76,3.14-15.69,25.37-17.35,25.35-6.34-4.9-12.75-9.95-19.39-14.42-4.28-2.88-15.17-8.25-15.74-13.5-.8-7.32,10.46-22.26,15.8-27.25,1.55-1.45,7.77-7.02,9.56-7.27Z" style="fill: #ffe8bf;"/>
    <path d="M192.83,83.59c-20.57-22.74-49.62,1.23-55.56,70.18-18.34-37.14-59.17-64.95-97.5-79.42,5.59-23.79,17.93-61.73,48.27-58.38-8.98,3.07-14.83,12.79-13.83,22.18,22.6,3.25,39.55,19.82,51.6,37.49,9.34-42.16,54.02-72.78,96.09-57.55l-29.06,65.52Z" style="fill: #d5a866;"/>
    <path d="M338.74,119.85l-30.65,4.81c-3.42-16.1-7.49-37.18-18.79-49.77-1.68-1.87-8.33-8.93-10.7-5.68-2.04,2.8-12.88,16.63-16.94,16.84-1.98-.45-2.46-2.75-2.68-4.51-1.76-14.38,16.11-42.99,22.79-55.96,4.84-9.39,9.12-16.22,19.33-7.33,15.88,13.82,30.33,61.01,35.08,81.79.52,2.27,3.3,18.51,2.55,19.82Z" style="fill: #ffe8bf;"/>
    <path d="M409.46,76.99c-1.22-.85-4.6,4.84-5.48,5.79-7.78,8.43-16.22,12.71-27.48,7.22-12.16-5.93-9.61-24.2-10.43-35.29-.72-9.64-3.19-13.43-9.83-4.05-1.67.71-1.21-4.75-1.09-5.73.75-6.44,7.3-18.62,13.43-21.3,14.74-6.45,11.49,21.16,11.98,28.76.59,9.22,2.43,20.52,14.58,14.6,12.28-5.99,2.93-26.09.85-35.82-.76-3.57-1.9-5.42.47-8.59,2.56-3.43,11.21-11.72,14.68-5.98,6.67,11.01-1.66,33.84,8.74,44.51,3.21,3.29,13.02,5.06,13.9.54,2.75-14.13-17.63-25.41-6.91-39.33,1.11-1.44,8.33-8.86,9.84-8.15,8.67,14.2,13.66,34.31,12.13,50.96-2.03,22.02-27.79,35.47-39.35,11.88Z" style="fill: #d5a866;"/>
  </g>
  <path d="M670.21,6.34c33.23,253.95-314.5,79.36-521.03,214.53-92.11,51.67-105.88,231.37,40.45,163.34,30.09-15.03,10.89-24.68-12.09-22.47,0,0,0,0,0,0-75.38-5.46-12.81-118.04,31.93-128.08,42.92-16.93,34.59,50.71,9.83,52.95-4.5-2.34-1.47-9.6-7.85-11.95-15.78-8.68-69.26,31.5-41.06,43.16,16.69,6.63,43.34-2.62,54.21,15.08,9.65,15.71.6,46.9-8.33,61.81-19.91,33.23-76.62,55.02-117.26,40.9-107.97-37.51-52.77-204.07,41.3-255.5,107.48-58.77,283.5-61.09,388.73-77.07,130.44-19.8,131.5-83.67,138.31-95.65.54-.94,1.11-1.11,2.19-1.11l.66.07ZM642.44,93.87c-42.72,35.43-81.65,44.54-133.34,46.37,46.98,6.3,104.03-8.02,133.34-46.37ZM191.88,169.95c-50.81,10.65-97.84,50.9-111.46,101.61,30.49-52.02,57.22-76.01,111.46-101.61Z" style="fill: #ffe8bf;"/>
  <path d="M405.62,504.93l27.96-10.33c15.44-7.64,30.47-16.57,43.65-27.72,8.81-7.46,19.48-22.01,31.32-23.38,11.18-1.29,19.62,9.17,31.74,4.66,7.97-2.96,9.41-14.79,15.06-20.36,2.5-2.47,2.5-.37,2.82,1.9.36,2.61.4,11.72,1.74,13.11,2.17,2.24,12.78.98,12.41-2.72-.23-2.33-4.36-2.37-3.45-6.57.59-2.74,5.98-13.64,7.89-15.57.44-.44.87-.84,1.53-.9,16.11,10.35,7.21,39.44-6.87,47.67-8.8,5.15-13.41-.08-21.21-3.6-7.39,11.75-17.77,13.75-29.64,6.71-3.05-1.81-6.32-5.73-9.98-5.65-4.69.11-13.77,6.03-17.95,8.66-14.04,8.83-45.89,34.09-61.77,34.09h-25.26Z" style="fill: #d5a866;"/>
</svg>
